<?xml version="1.0" standalone="no"?>
<!DOCTYPE svg PUBLIC "-//W3C//DTD SVG 20010904//EN"
 "http://www.w3.org/TR/2001/REC-SVG-20010904/DTD/svg10.dtd">
<svg version="1.0" xmlns="http://www.w3.org/2000/svg"
 width="700.000000pt" height="700.000000pt" viewBox="0 0 700.000000 700.000000"
 preserveAspectRatio="xMidYMid meet">
<metadata>
Created by potrace 1.14, written by Peter Selinger 2001-2017
</metadata>
<g transform="translate(0.000000,700.000000) scale(0.100000,-0.100000)"
fill="#000000" stroke="none">
<path d="M1873 5925 c-222 -40 -452 -171 -599 -341 -183 -213 -345 -492 -366
-633 -24 -159 -71 -236 -255 -419 -184 -182 -218 -245 -174 -318 23 -38 86
-70 178 -89 87 -18 303 -35 449 -35 453 0 624 -84 1018 -500 179 -188 299
-328 931 -1080 580 -690 1140 -1313 1277 -1422 35 -27 41 -29 67 -18 223 92
1758 1943 1919 2313 21 48 16 60 -19 53 -90 -18 -428 -313 -832 -726 -517
-529 -907 -995 -907 -1084 0 -46 -22 -97 -46 -108 -121 -56 -454 278 -1364
1367 -547 656 -740 876 -955 1091 -172 173 -293 270 -407 330 -135 69 -208 84
-438 90 -319 8 -368 24 -357 119 11 98 195 425 372 660 156 208 318 350 462
406 87 34 244 38 348 10 331 -91 679 -412 702 -649 11 -107 44 -136 195 -172
230 -53 459 -62 1819 -69 l1217 -6 -215 -255 c-312 -369 -715 -839 -888 -1035
-83 -93 -262 -299 -397 -458 l-247 -287 -408 467 c-537 616 -828 906 -991 989
-48 24 -55 26 -69 12 -13 -14 -13 -22 -3 -54 68 -209 519 -811 1012 -1351 210
-230 385 -388 467 -422 29 -12 34 -11 68 15 175 130 1046 1122 1628 1854 343
431 484 635 471 678 -19 58 -231 103 -631 132 -238 17 -1002 29 -1865 30
l-795 0 -180 247 c-99 135 -213 281 -254 325 -254 271 -612 402 -938 343z"/>
</g>
</svg>
