<?xml version="1.0" standalone="no"?>
<!DOCTYPE svg PUBLIC "-//W3C//DTD SVG 20010904//EN"
 "http://www.w3.org/TR/2001/REC-SVG-20010904/DTD/svg10.dtd">
<svg version="1.0" xmlns="http://www.w3.org/2000/svg"
 width="1200.000000pt" height="1200.000000pt" viewBox="0 0 1200.000000 1200.000000"
 preserveAspectRatio="xMidYMid meet">
<metadata>
Created by potrace 1.14, written by Peter Selinger 2001-2017
</metadata>
<g transform="translate(0.000000,1200.000000) scale(0.100000,-0.100000)"
fill="#000000" stroke="none">
<path d="M0 6000 l0 -6000 6000 0 6000 0 0 6000 0 6000 -6000 0 -6000 0 0
-6000z m7806 1899 c18 -20 19 -39 16 -398 -2 -207 -7 -529 -12 -716 -5 -187
-10 -473 -10 -635 0 -162 -5 -446 -10 -630 -7 -237 -7 -343 1 -361 16 -40 -15
-99 -64 -122 -33 -15 -40 -16 -65 -3 -38 21 -1279 1266 -1286 1292 -16 52 46
124 105 124 17 0 166 -142 561 -537 295 -295 541 -533 545 -529 4 4 11 206 15
449 4 243 12 674 18 957 6 283 10 630 10 770 0 333 8 360 105 360 40 0 56 -5
71 -21z m-3356 -227 c58 -59 163 -168 234 -242 71 -74 191 -198 265 -275 75
-77 183 -190 240 -250 58 -61 172 -180 255 -265 82 -85 188 -195 235 -245 48
-49 203 -211 346 -360 234 -243 374 -389 475 -495 19 -20 98 -102 175 -181 77
-80 187 -194 244 -254 58 -61 164 -171 235 -245 384 -396 565 -589 580 -618
16 -31 16 -35 -1 -64 -10 -17 -30 -40 -45 -51 -54 -40 -75 -23 -371 288 -99
105 -251 262 -336 350 -86 89 -203 210 -261 270 -58 61 -215 225 -350 365
-135 140 -290 302 -345 359 -55 58 -161 168 -236 246 -75 77 -155 160 -179
185 -73 77 -206 215 -470 490 -140 146 -298 310 -350 365 -52 55 -161 167
-241 250 -259 267 -324 336 -337 361 -27 51 54 143 113 128 11 -3 67 -54 125
-112z m-87 -521 c53 -20 53 30 17 -1726 -12 -584 -13 -825 -3 -825 4 0 258
250 563 555 487 486 559 555 585 555 36 -1 55 -14 88 -63 22 -32 24 -43 16
-65 -11 -31 -1236 -1262 -1287 -1294 -32 -20 -35 -20 -87 -3 -57 18 -69 27
-77 62 -3 12 -2 257 3 545 5 287 13 824 18 1193 6 368 13 750 17 849 7 170 9
181 30 203 25 25 73 30 117 14z m2909 -3728 c132 -61 207 -172 229 -336 31
-243 -71 -447 -256 -512 -113 -40 -269 -29 -366 24 -99 56 -147 113 -184 226
-25 72 -27 90 -23 195 6 154 32 231 104 310 90 97 177 131 324 127 93 -3 113
-7 172 -34z m-4385 5 c5 -7 17 -49 27 -93 9 -44 21 -98 26 -120 5 -22 17 -74
25 -115 9 -41 21 -85 26 -97 10 -27 29 -30 29 -5 0 22 47 275 69 367 l16 70
101 3 c73 2 104 -1 111 -10 11 -12 29 -93 77 -332 21 -104 38 -139 50 -99 8
30 59 251 77 338 21 100 21 100 137 103 85 2 102 0 102 -12 0 -14 -13 -65 -45
-178 -8 -29 -24 -87 -36 -128 -11 -41 -27 -97 -35 -125 -7 -27 -23 -81 -33
-120 -19 -68 -64 -224 -80 -275 -7 -24 -10 -25 -108 -28 l-101 -3 -7 33 c-3
18 -10 53 -16 78 -5 25 -23 114 -39 198 -28 143 -45 200 -56 189 -3 -2 -9 -29
-14 -58 -5 -30 -21 -108 -35 -174 -14 -66 -30 -145 -34 -175 -15 -94 -11 -90
-117 -90 -108 0 -98 -9 -135 125 -11 39 -26 95 -35 125 -9 30 -19 69 -24 85
-5 17 -27 95 -50 175 -43 149 -47 164 -74 263 -28 101 -31 97 88 97 71 0 106
-4 113 -12z m1698 -83 l0 -90 -215 -5 -215 -5 0 -60 0 -60 200 -5 200 -5 3
-70 c5 -124 22 -114 -206 -117 l-197 -3 0 -80 0 -80 225 -5 225 -5 3 -92 3
-93 -336 0 -335 0 0 428 c0 236 3 432 7 435 4 4 149 6 322 5 l316 -3 0 -90z
m804 65 c60 -34 99 -86 117 -154 17 -66 8 -117 -32 -179 l-25 -38 34 -39 c94
-110 69 -285 -54 -376 -64 -47 -118 -55 -376 -52 l-238 3 -3 424 c-2 333 1
427 10 433 7 5 128 7 268 6 251 -3 256 -3 299 -28z m579 18 c5 -7 22 -35 38
-63 53 -97 63 -114 88 -154 15 -22 26 -43 26 -45 0 -8 103 -181 119 -200 15
-17 16 1 21 225 l5 244 95 0 95 0 3 -432 2 -433 -105 0 c-91 0 -106 2 -112 18
-4 9 -17 34 -31 55 -21 36 -35 60 -95 167 -10 19 -23 40 -27 45 -4 6 -22 37
-40 70 -68 124 -78 139 -89 143 -8 3 -11 -66 -11 -247 l0 -251 -105 0 -105 0
0 429 c0 334 3 430 13 434 28 12 205 7 215 -5z m1888 4 c5 -4 23 -52 38 -107
16 -55 32 -111 36 -125 4 -14 20 -70 35 -125 35 -126 56 -187 64 -180 3 3 10
25 17 48 9 36 28 104 64 232 5 17 16 55 25 85 9 30 23 79 31 109 8 29 17 58
20 62 8 13 198 11 211 -2 8 -8 -12 -79 -73 -257 -47 -136 -103 -301 -125 -367
-22 -66 -49 -146 -61 -177 l-21 -58 -98 0 c-55 0 -99 1 -99 3 0 1 -63 189
-140 417 -77 228 -140 423 -140 433 0 15 11 17 103 17 56 0 107 -4 113 -8z
m1182 -4 c5 -7 17 -33 25 -58 9 -25 34 -97 57 -160 23 -63 50 -140 60 -170 10
-30 41 -118 68 -195 28 -77 59 -167 71 -200 12 -32 21 -63 21 -67 0 -5 -52 -7
-116 -6 l-116 3 -20 65 c-31 102 -18 95 -166 98 l-131 3 -14 -28 c-8 -15 -22
-54 -31 -85 l-18 -58 -114 0 c-63 0 -114 3 -114 6 0 7 66 197 80 229 4 11 25
67 45 125 20 58 41 116 47 130 5 14 18 50 28 80 49 147 102 285 113 292 21 13
213 10 225 -4z"/>
<path d="M7015 3410 c-136 -20 -241 -112 -280 -246 -20 -69 -20 -252 0 -318
41 -136 132 -216 279 -246 193 -39 388 80 432 265 14 60 16 210 3 265 -46 201
-219 312 -434 280z m184 -123 c44 -22 74 -54 107 -117 15 -29 19 -58 19 -165
0 -127 -1 -131 -31 -185 -37 -66 -90 -105 -162 -120 -105 -23 -216 37 -263
142 -21 46 -24 68 -24 163 0 124 18 181 78 243 67 71 179 86 276 39z"/>
<path d="M7023 3260 c-42 -13 -102 -76 -119 -125 -19 -55 -18 -200 2 -258 52
-153 255 -181 338 -48 58 93 59 269 2 356 -43 65 -143 99 -223 75z"/>
<path d="M2730 3373 c1 -20 17 -81 90 -338 29 -99 55 -193 60 -210 5 -16 15
-55 24 -85 8 -30 19 -68 24 -85 8 -29 11 -30 73 -33 l65 -3 18 93 c10 51 22
109 27 128 4 19 25 122 45 228 33 168 40 192 56 192 22 0 19 11 53 -170 15
-80 31 -161 35 -180 5 -19 14 -62 20 -95 7 -33 18 -91 27 -128 l15 -68 66 3
66 3 12 45 c12 44 40 143 68 245 8 28 24 84 35 125 28 98 49 173 67 235 8 28
17 65 20 83 l7 32 -61 0 -60 0 -17 -72 c-9 -40 -28 -120 -41 -178 -14 -58 -30
-127 -36 -155 -5 -27 -14 -68 -19 -90 -4 -22 -11 -55 -14 -72 -5 -23 -12 -33
-25 -33 -13 0 -21 12 -29 48 -17 78 -33 155 -41 197 -15 82 -60 291 -68 320
-8 29 -11 30 -74 33 -44 2 -68 -1 -75 -10 -6 -7 -20 -69 -33 -138 -12 -69 -25
-138 -30 -155 -4 -16 -13 -64 -20 -105 -27 -159 -34 -185 -55 -185 -14 0 -21
10 -27 40 -4 22 -17 83 -29 135 -55 248 -71 319 -83 365 l-13 50 -61 3 c-54 3
-62 1 -62 -15z"/>
<path d="M3985 3377 c-3 -6 -4 -179 -3 -382 l3 -370 288 -3 288 -2 -3 47 -3
48 -222 3 -223 2 0 124 c0 104 3 125 16 130 9 3 99 6 200 6 l185 0 -3 48 -3
47 -197 3 -198 2 0 105 0 105 210 0 210 0 11 24 c7 14 9 36 5 50 l-6 26 -276
0 c-211 0 -276 -3 -279 -13z"/>
<path d="M4865 3378 c-3 -7 -4 -180 -3 -383 l3 -370 215 -3 c245 -3 280 3 343
58 41 37 77 109 77 155 0 71 -51 149 -116 180 -20 9 -32 20 -28 24 5 4 26 20
48 35 95 71 84 214 -23 287 -35 24 -41 24 -274 27 -189 3 -238 1 -242 -10z
m436 -102 c76 -49 58 -156 -33 -190 -33 -13 -70 -16 -163 -14 l-120 3 -3 99
c-1 55 0 106 3 114 8 22 280 12 316 -12z m9 -321 c67 -40 77 -139 21 -196 -39
-39 -93 -50 -228 -47 l-118 3 -3 124 c-2 93 1 127 10 133 7 5 74 7 148 6 115
-3 140 -6 170 -23z"/>
<path d="M5032 3247 c-8 -9 -12 -36 -10 -69 l3 -53 113 -3 c131 -3 161 9 162
65 0 50 -31 64 -153 70 -85 5 -105 3 -115 -10z"/>
<path d="M5024 2917 c-3 -8 -4 -45 -2 -83 l3 -69 121 -3 c116 -2 121 -2 147
22 38 35 38 96 1 125 -24 19 -40 21 -146 21 -90 0 -120 -3 -124 -13z"/>
<path d="M5797 3383 c-4 -3 -7 -177 -7 -385 l0 -378 55 0 55 0 0 278 c0 216 3
282 13 296 13 18 14 18 33 -2 10 -11 28 -38 39 -59 11 -21 46 -82 77 -136 32
-54 58 -100 58 -102 0 -2 26 -48 58 -102 31 -54 66 -115 77 -136 l20 -38 70 3
70 3 0 380 0 380 -55 0 -55 0 -3 -275 c-1 -154 -6 -278 -12 -284 -18 -18 -31
0 -123 164 -10 19 -36 64 -57 100 -21 36 -48 83 -60 105 -12 22 -43 75 -67
118 l-45 77 -67 0 c-37 0 -71 -3 -74 -7z"/>
<path d="M7700 3380 c0 -6 41 -131 90 -278 50 -147 107 -315 127 -374 l35
-108 68 0 c64 0 68 1 78 28 6 15 52 151 103 302 51 151 103 304 116 340 34
100 34 101 -39 98 -54 -3 -63 -6 -66 -23 -2 -11 -14 -56 -27 -100 -66 -217
-125 -426 -125 -439 0 -7 -9 -24 -19 -37 -26 -32 -38 -19 -61 67 -10 38 -37
134 -60 214 -44 152 -55 190 -71 255 -6 21 -15 45 -21 52 -13 16 -128 18 -128
3z"/>
<path d="M8827 3358 c-8 -18 -26 -69 -41 -113 -15 -44 -31 -89 -36 -100 -5
-11 -17 -42 -25 -70 -9 -27 -20 -59 -25 -70 -8 -19 -21 -56 -86 -237 -14 -40
-30 -83 -35 -96 -18 -46 -13 -52 50 -52 68 0 67 -1 97 90 l21 65 173 0 173 0
24 -77 24 -78 65 0 c45 0 64 4 64 13 0 7 -16 57 -36 112 -19 55 -43 125 -54
155 -10 30 -37 107 -60 170 -23 63 -44 124 -47 135 -2 11 -9 29 -13 40 -5 11
-16 42 -25 70 -24 73 -27 75 -116 75 l-79 0 -13 -32z m118 -120 c80 -252 105
-340 100 -348 -8 -13 -242 -13 -250 0 -3 6 -2 25 4 43 6 17 27 80 46 139 19
58 35 112 35 120 0 38 55 76 65 46z"/>
<path d="M8882 3042 c-18 -55 -32 -103 -32 -106 0 -4 30 -6 68 -4 77 3 74 -3
41 110 -35 115 -41 115 -77 0z"/>
</g>
</svg>
