        <svg
            version="1.0"
            viewBox="0 0 300.000000 10.000000"
            preserveAspectRatio="xMidYMid meet"
        >
            <g
                transform="translate(0.000000,43.000000) scale(0.100000,-0.100000)"
                stroke="none"
            >
                <path
                    d="M298 340 l-22 -30 -108 0 c-71 0 -108 -4 -108 -11 0 -11 127 -161
140 -167 11 -4 100 103 100 119 0 8 -22 -10 -49 -40 l-48 -55 -30 35 c-17 19
-43 49 -58 67 l-27 32 106 0 c82 0 106 3 106 13 0 20 33 47 57 47 20 0 38 -17
61 -57 11 -22 10 -23 -20 -23 -29 0 -42 -11 -112 -95 -72 -87 -95 -108 -96
-87 -1 14 -109 126 -116 119 -7 -6 115 -155 128 -156 3 -1 44 44 90 99 81 97
84 99 126 100 44 0 52 9 27 30 -8 7 -15 18 -15 25 0 7 -9 24 -21 39 -30 38
-81 36 -111 -4z "
                />            </g>
        </svg>